<mxfile modified="2023-09-12T09:43:59.937Z" host="Electron" agent="Mozilla/5.0 (Macintosh; Intel Mac OS X 10_15_7) AppleWebKit/537.36 (KHTML, like Gecko) draw.io/21.6.8 Chrome/114.0.5735.289 Electron/25.5.0 Safari/537.36" etag="K_F7A_viCFxIhu4Z-ilo" version="21.6.8" type="device">
  <diagram id="7BS8W2Eh7hPiAfmex7UW" name="monolitic">
    <mxGraphModel dx="1420" dy="840" grid="1" gridSize="10" guides="1" tooltips="1" connect="1" arrows="1" fold="1" page="1" pageScale="1" pageWidth="827" pageHeight="1169" math="0" shadow="0">
      <root>
        <mxCell id="0" />
        <mxCell id="1" parent="0" />
        <mxCell id="gs3cca02H7_guCa9z_B3-4" value="MÃ quina Virtual" style="points=[[0,0],[0.25,0],[0.5,0],[0.75,0],[1,0],[1,0.25],[1,0.5],[1,0.75],[1,1],[0.75,1],[0.5,1],[0.25,1],[0,1],[0,0.75],[0,0.5],[0,0.25]];outlineConnect=0;gradientColor=none;html=1;whiteSpace=wrap;fontSize=15;fontStyle=0;container=1;pointerEvents=0;collapsible=0;recursiveResize=0;shape=mxgraph.aws4.group;grIcon=mxgraph.aws4.group_on_premise;strokeColor=#5A6C86;fillColor=none;verticalAlign=top;align=left;spacingLeft=30;fontColor=#5A6C86;dashed=0;" vertex="1" parent="1">
          <mxGeometry x="440" y="20" width="380" height="250" as="geometry" />
        </mxCell>
        <mxCell id="gs3cca02H7_guCa9z_B3-1" value="Wordpress" style="sketch=0;points=[[0,0,0],[0.25,0,0],[0.5,0,0],[0.75,0,0],[1,0,0],[0,1,0],[0.25,1,0],[0.5,1,0],[0.75,1,0],[1,1,0],[0,0.25,0],[0,0.5,0],[0,0.75,0],[1,0.25,0],[1,0.5,0],[1,0.75,0]];outlineConnect=0;fontColor=#232F3E;gradientColor=#F78E04;gradientDirection=north;fillColor=#D05C17;strokeColor=#ffffff;dashed=0;verticalLabelPosition=bottom;verticalAlign=top;align=center;html=1;fontSize=15;fontStyle=0;aspect=fixed;shape=mxgraph.aws4.resourceIcon;resIcon=mxgraph.aws4.serverless_application_repository;" vertex="1" parent="gs3cca02H7_guCa9z_B3-4">
          <mxGeometry x="70" y="100" width="78" height="78" as="geometry" />
        </mxCell>
        <mxCell id="gs3cca02H7_guCa9z_B3-3" value="Servidor Base de Dades" style="sketch=0;outlineConnect=0;fontColor=#232F3E;gradientColor=none;fillColor=#2E27AD;strokeColor=none;dashed=0;verticalLabelPosition=bottom;verticalAlign=top;align=center;html=1;fontSize=15;fontStyle=0;aspect=fixed;pointerEvents=1;shape=mxgraph.aws4.rds_sql_server_instance;" vertex="1" parent="gs3cca02H7_guCa9z_B3-4">
          <mxGeometry x="250" y="10" width="78" height="78" as="geometry" />
        </mxCell>
        <mxCell id="gs3cca02H7_guCa9z_B3-13" style="edgeStyle=orthogonalEdgeStyle;rounded=0;orthogonalLoop=1;jettySize=auto;html=1;fontSize=15;" edge="1" parent="gs3cca02H7_guCa9z_B3-4" source="gs3cca02H7_guCa9z_B3-1" target="gs3cca02H7_guCa9z_B3-3">
          <mxGeometry relative="1" as="geometry">
            <Array as="points">
              <mxPoint x="180" y="139" />
              <mxPoint x="180" y="49" />
            </Array>
          </mxGeometry>
        </mxCell>
        <mxCell id="gs3cca02H7_guCa9z_B3-2" value="Servidor Web" style="sketch=0;points=[[0,0,0],[0.25,0,0],[0.5,0,0],[0.75,0,0],[1,0,0],[0,1,0],[0.25,1,0],[0.5,1,0],[0.75,1,0],[1,1,0],[0,0.25,0],[0,0.5,0],[0,0.75,0],[1,0.25,0],[1,0.5,0],[1,0.75,0]];outlineConnect=0;fontColor=#232F3E;gradientColor=#F78E04;gradientDirection=north;fillColor=#D05C17;strokeColor=#ffffff;dashed=0;verticalLabelPosition=bottom;verticalAlign=top;align=center;html=1;fontSize=15;fontStyle=0;aspect=fixed;shape=mxgraph.aws4.resourceIcon;resIcon=mxgraph.aws4.elemental;" vertex="1" parent="gs3cca02H7_guCa9z_B3-4">
          <mxGeometry x="250" y="140" width="78" height="78" as="geometry" />
        </mxCell>
        <mxCell id="gs3cca02H7_guCa9z_B3-14" style="edgeStyle=orthogonalEdgeStyle;rounded=0;orthogonalLoop=1;jettySize=auto;html=1;fontSize=15;" edge="1" parent="gs3cca02H7_guCa9z_B3-4" source="gs3cca02H7_guCa9z_B3-1" target="gs3cca02H7_guCa9z_B3-2">
          <mxGeometry relative="1" as="geometry">
            <Array as="points">
              <mxPoint x="180" y="139" />
              <mxPoint x="180" y="179" />
            </Array>
          </mxGeometry>
        </mxCell>
        <mxCell id="gs3cca02H7_guCa9z_B3-5" value="users" style="sketch=0;outlineConnect=0;gradientColor=none;fontColor=#545B64;strokeColor=none;fillColor=#879196;dashed=0;verticalLabelPosition=bottom;verticalAlign=top;align=center;html=1;fontSize=15;fontStyle=0;aspect=fixed;shape=mxgraph.aws4.illustration_users;pointerEvents=1" vertex="1" parent="1">
          <mxGeometry x="260" y="109" width="100" height="100" as="geometry" />
        </mxCell>
        <mxCell id="gs3cca02H7_guCa9z_B3-12" style="edgeStyle=orthogonalEdgeStyle;rounded=0;orthogonalLoop=1;jettySize=auto;html=1;fontSize=15;" edge="1" parent="1" target="gs3cca02H7_guCa9z_B3-1">
          <mxGeometry relative="1" as="geometry">
            <mxPoint x="470" y="159" as="sourcePoint" />
          </mxGeometry>
        </mxCell>
        <mxCell id="gs3cca02H7_guCa9z_B3-7" value="80" style="fontStyle=0;labelPosition=right;verticalLabelPosition=middle;align=left;verticalAlign=middle;spacingLeft=2;fontSize=15;" vertex="1" parent="1">
          <mxGeometry x="431" y="155" width="17" height="8" as="geometry" />
        </mxCell>
        <mxCell id="gs3cca02H7_guCa9z_B3-11" value="" style="edgeStyle=orthogonalEdgeStyle;html=1;endArrow=block;elbow=vertical;startArrow=none;endFill=1;strokeColor=#545B64;rounded=0;fontSize=15;" edge="1" parent="1" source="gs3cca02H7_guCa9z_B3-5">
          <mxGeometry width="100" relative="1" as="geometry">
            <mxPoint x="350" y="430" as="sourcePoint" />
            <mxPoint x="430" y="158" as="targetPoint" />
          </mxGeometry>
        </mxCell>
      </root>
    </mxGraphModel>
  </diagram>
</mxfile>
